<?xml version="1.0" encoding="UTF-8" standalone="no"?>
<svg
   version="1.1"
   viewBox="0 0 512 512"
   xml:space="preserve"
   id="svg87"
   sodipodi:docname="opimappa-icon-v2.svg"
   inkscape:version="1.1.2 (b8e25be833, 2022-02-05)"
   xmlns:inkscape="http://www.inkscape.org/namespaces/inkscape"
   xmlns:sodipodi="http://sodipodi.sourceforge.net/DTD/sodipodi-0.dtd"
   xmlns="http://www.w3.org/2000/svg"
   xmlns:svg="http://www.w3.org/2000/svg"><sodipodi:namedview
   id="namedview89"
   pagecolor="#ffffff"
   bordercolor="#666666"
   borderopacity="1.0"
   inkscape:pageshadow="2"
   inkscape:pageopacity="0.0"
   inkscape:pagecheckerboard="0"
   showgrid="false"
   inkscape:zoom="1.4550781"
   inkscape:cx="197.92752"
   inkscape:cy="317.1651"
   inkscape:window-width="1920"
   inkscape:window-height="1051"
   inkscape:window-x="-9"
   inkscape:window-y="-9"
   inkscape:window-maximized="1"
   inkscape:current-layer="svg87" />
  <defs
   id="defs31">
    <!-- Gradienti originali dal logo -->
    <linearGradient
   id="blueGrad1"
   gradientUnits="userSpaceOnUse"
   x1="0%"
   y1="0%"
   x2="0%"
   y2="100%">
      <stop
   offset="0"
   style="stop-color:#1E345D"
   id="stop2" />
      <stop
   offset="1"
   style="stop-color:#2EAAE2"
   id="stop4" />
    </linearGradient>
    
    <linearGradient
   id="blueGrad2"
   gradientUnits="userSpaceOnUse"
   x1="0%"
   y1="0%"
   x2="0%"
   y2="100%">
      <stop
   offset="0"
   style="stop-color:#1E345D"
   id="stop7" />
      <stop
   offset="0.7766"
   style="stop-color:#2EAAE2"
   id="stop9" />
      <stop
   offset="1"
   style="stop-color:#2EAAE2"
   id="stop11" />
    </linearGradient>
    
    <linearGradient
   id="redGrad1"
   gradientUnits="userSpaceOnUse"
   x1="0%"
   y1="100%"
   x2="0%"
   y2="0%">
      <stop
   offset="0"
   style="stop-color:#D1091E"
   id="stop14" />
      <stop
   offset="0.1235"
   style="stop-color:#D1091E"
   id="stop16" />
      <stop
   offset="1"
   style="stop-color:#F8B03D"
   id="stop18" />
    </linearGradient>
    
    <linearGradient
   id="redGrad2"
   gradientUnits="userSpaceOnUse"
   x1="0%"
   y1="100%"
   x2="0%"
   y2="0%">
      <stop
   offset="0"
   style="stop-color:#E42629"
   id="stop21" />
      <stop
   offset="1"
   style="stop-color:#F29222"
   id="stop23" />
    </linearGradient>
    
    <!-- Gradiente sfondo -->
    <radialGradient
   id="bgGradient"
   cx="50%"
   cy="50%"
   r="50%">
      <stop
   offset="0%"
   style="stop-color:#2C3E50;stop-opacity:1"
   id="stop26" />
      <stop
   offset="100%"
   style="stop-color:#1a252f;stop-opacity:1"
   id="stop28" />
    </radialGradient>
  </defs>
  
  <!-- Sfondo arrotondato -->
  <rect
   width="512"
   height="512"
   rx="90"
   fill="url(#bgGradient)"
   id="rect33" />
  
  <!-- Griglia mappa sottile in background -->
  <g
   opacity="0.12"
   stroke="#ffffff"
   stroke-width="1.5"
   fill="none"
   id="g47">
    <line
   x1="170"
   y1="140"
   x2="170"
   y2="420"
   id="line35" />
    <line
   x1="256"
   y1="140"
   x2="256"
   y2="420"
   id="line37" />
    <line
   x1="342"
   y1="140"
   x2="342"
   y2="420"
   id="line39" />
    <line
   x1="140"
   y1="200"
   x2="420"
   y2="200"
   id="line41" />
    <line
   x1="140"
   y1="280"
   x2="420"
   y2="280"
   id="line43" />
    <line
   x1="140"
   y1="360"
   x2="420"
   y2="360"
   id="line45" />
  </g>
  
  <!-- Fiamma originale dal logo, scalata e centrata -->
  <g
   transform="matrix(0.34498158,0,0,0.34498158,129.9014,73.093727)"
   id="g65">
    <!-- Parte rossa/arancio della fiamma -->
    <g
   id="g51">
      <path
   fill="url(#redGrad1)"
   d="M 303.06,287.539 C 316.189,244.741 301.267,198.231 263.695,157.049 244.001,316.02 73.667,406.363 73.667,595.684 c 0,133.369 136.197,319.533 366.069,273.63 -4.469,-1.06 -214.117,-51.761 -160.689,-246.89 25.3,-92.591 114.28,-171.621 160.992,-273.125 49.641,-108.017 60.599,-286.154 -91.732,-346.45 23.079,69.714 13.887,211.844 -45.247,284.69"
   id="path49"
   style="fill:url(#redGrad1)" />
    </g>
    
    <!-- Parte rossa frontale -->
    <g
   id="g55">
      <path
   fill="url(#redGrad2)"
   d="m 73.667,595.684 c 0,133.394 136.197,319.559 366.144,273.63 0,0 -199.068,-7.549 -254.036,-131.979 -65.8,-148.922 16.564,-297.693 117.285,-449.821 l 1.843,-6.843 v 0.025 c 9.645,-40.88 -5.631,-84.663 -41.208,-123.647 C 244.001,316.02 73.667,406.363 73.667,595.684"
   id="path53"
   style="fill:url(#redGrad2)" />
    </g>
    
    <!-- Parte blu della fiamma -->
    <g
   id="g59">
      <path
   fill="url(#blueGrad1)"
   d="m 313.21,702.894 c 8.686,62.165 55.852,104.736 113.573,121.527 C 570.68,866.285 671.224,701.859 655.822,554.25 645.596,456.685 584.72,322.989 506.622,228.985 485.312,484.005 290.764,542.105 313.21,702.894"
   id="path57"
   style="fill:url(#blueGrad1)" />
    </g>
    
    <!-- Parte blu superiore -->
    <g
   id="g63">
      <path
   fill="url(#blueGrad2)"
   d="m 506.597,228.985 c 199.649,481.156 -130.186,572.13 -191.543,413.436 -3.964,18.761 -4.923,38.682 -1.868,60.472 8.686,62.165 55.851,104.736 113.572,121.527 C 570.655,866.309 671.199,701.858 655.772,554.249 645.596,456.684 584.72,322.988 506.622,228.984 h -0.025 z"
   id="path61"
   style="fill:url(#blueGrad2)" />
    </g>
  </g>
  
  <!-- Pin di mappatura integrato -->
  <g
   id="g75">
    <!-- Ombra del pin -->
    <ellipse
   cx="256"
   cy="380"
   rx="22"
   ry="9"
   fill="#000000"
   opacity="0.3"
   id="ellipse67" />
    
    <!-- Corpo del pin -->
    <path
   fill="#2EAAE2"
   stroke="#1E345D"
   stroke-width="3.5"
   d="M 256 325       C 238 325, 224 339, 224 357       C 224 371, 235 383, 256 406       C 277 383, 288 371, 288 357       C 288 339, 274 325, 256 325 Z"
   id="path69" />
    
    <!-- Centro del pin (bianco) -->
    <circle
   cx="256"
   cy="353"
   r="10"
   fill="#ffffff"
   id="circle71" />
    
    <!-- Punto centrale del pin -->
    <circle
   cx="256"
   cy="353"
   r="4"
   fill="#1E345D"
   id="circle73" />
  </g>
  
  <!-- Elementi decorativi angolari (linee di costruzione) -->
  <g
   stroke="#2EAAE2"
   stroke-width="3"
   fill="none"
   opacity="0.35"
   stroke-linecap="round"
   id="g85">
    <path
   d="M 80 80 L 80 120 M 80 80 L 120 80"
   id="path77" />
    <path
   d="M 432 80 L 432 120 M 432 80 L 392 80"
   id="path79" />
    <path
   d="M 80 432 L 80 392 M 80 432 L 120 432"
   id="path81" />
    <path
   d="M 432 432 L 432 392 M 432 432 L 392 432"
   id="path83" />
  </g>
</svg>
